<svg xmlns="http://www.w3.org/2000/svg" xml:space="preserve" viewBox="0 0 60 78">
    <path d="m54.2 54.4-5.1-6.3c-.5-.7-.8-1.5-.8-2.4v-13c0-8.1-5.4-15.3-13.2-17.5v-5.1c0-2.8-2.3-5-5-5s-5 2.3-5 5v5c-7.9 2.3-13.3 9.5-13.2 17.6v13c0 .9-.3 1.7-.8 2.4L6 54.4c-.4.5-.7 1.2-.7 1.9v7.9h49.8v-7.9c-.2-.7-.5-1.4-.9-1.9zM28 10.1c0-1.1.9-2 2-2s2 .9 2 2v4.5c-1.4-.2-2.7-.2-4.1 0v-4.5zm23.9 51H8.1v-4.8l5.1-6.3c1-1.2 1.5-2.7 1.5-4.3v-13c0-8.4 6.8-15.3 15.3-15.3s15.3 6.8 15.3 15.3v13c0 1.6.5 3.1 1.5 4.3l5.1 6.3v4.8z"/>
    <path d="M28 20.8v3c6.1 0 11.1 5 11.1 11.1h3c0-7.8-6.3-14.1-14.1-14.1zM30 69.9c-2.9 0-5.2-2.3-5.2-5.2h-3c0 4.5 3.7 8.2 8.2 8.2 4.5 0 8.2-3.7 8.2-8.2h-3c0 2.9-2.3 5.2-5.2 5.2z"/>
</svg>
