<svg xmlns="http://www.w3.org/2000/svg" width="39" height="31" class="icon message">
    <g fill="#fff" fill-rule="evenodd">
      <path d="M34.001 0H4.999q-.123 0-.245.006-.123.006-.245.018-.122.012-.244.03-.12.018-.241.042-.12.024-.24.054-.119.03-.236.065-.118.036-.233.077-.116.042-.229.089-.113.046-.224.099-.111.052-.22.11-.108.058-.213.121t-.207.131q-.102.069-.2.142-.1.073-.194.15-.095.079-.186.161t-.178.17q-.087.086-.169.177-.082.09-.16.186-.078.095-.151.193-.073.099-.142.2-.068.103-.13.208-.064.105-.122.213-.058.109-.11.22-.053.11-.1.224-.046.113-.088.229-.041.115-.077.233-.035.117-.065.236-.03.12-.054.24t-.042.241q-.018.122-.03.244t-.018.245Q0 4.876 0 4.999v17.002q0 .123.006.245.006.123.018.245.012.122.03.244.018.12.042.241.024.12.054.24.03.119.065.236.036.118.077.233.042.116.089.229.046.113.099.224.052.111.11.22.058.108.121.213t.131.207q.069.102.142.2.073.1.15.194.079.095.161.186t.17.178q.086.087.177.169.09.082.186.16.095.078.193.151.099.073.2.142.103.068.208.13.105.064.213.122.109.058.22.11.11.053.224.1.113.046.229.088.115.041.233.077.117.035.236.065.12.03.24.054t.241.042q.122.018.244.03t.245.018q.122.006.245.006h29.002q.123 0 .245-.006.123-.006.245-.018.122-.012.243-.03.122-.018.242-.042.12-.024.24-.054.119-.03.236-.065.118-.036.233-.077.116-.042.229-.088.113-.047.224-.1.111-.052.22-.11.108-.058.213-.121t.207-.132q.102-.068.2-.14.1-.074.194-.152.095-.078.186-.16t.178-.17q.087-.086.169-.177.082-.09.16-.186.078-.095.151-.193.073-.099.142-.2.068-.103.13-.208.064-.105.122-.213.058-.109.11-.22.052-.11.1-.224.046-.113.088-.229.041-.115.077-.233.035-.117.065-.236.03-.12.054-.24t.042-.241q.018-.122.03-.244t.018-.245q.006-.122.006-.245V4.999q0-.123-.006-.245-.006-.123-.018-.245-.012-.122-.03-.244-.018-.12-.042-.241-.024-.12-.054-.24-.03-.119-.065-.236-.036-.118-.077-.233-.042-.116-.088-.229-.047-.113-.1-.224-.052-.111-.11-.22-.058-.108-.121-.213t-.132-.207q-.068-.102-.14-.2-.074-.1-.152-.194-.078-.095-.16-.186t-.17-.178q-.086-.087-.177-.169-.09-.082-.186-.16-.094-.078-.193-.151t-.2-.142q-.103-.068-.208-.13-.105-.064-.213-.122-.109-.058-.22-.11-.11-.053-.224-.1-.113-.046-.229-.088-.115-.041-.233-.077-.117-.035-.236-.065-.12-.03-.24-.054t-.242-.042q-.12-.018-.243-.03-.122-.012-.245-.018Q34.124 0 34.001 0ZM11 14.5a1.5 1.5 0 1 0 3 0 1.5 1.5 0 0 0-3 0Zm7 0a1.5 1.5 0 1 0 3 0 1.5 1.5 0 0 0-3 0Zm7 0a1.5 1.5 0 1 0 3 0 1.5 1.5 0 0 0-3 0Z"/>
      <path d="M11 26v5l7-5h-7Z"/>
    </g>
</svg>
