<svg xmlns="http://www.w3.org/2000/svg" viewBox="0 0 100 100">
  <path d="M82.4 95a3.168 3.168 0 0 1-3.168-3.168V65.227H20.768v26.605a3.168 3.168 0 1 1-6.336 0V62.059a3.168 3.168 0 0 1 3.168-3.168h64.8a3.168 3.168 0 0 1 3.168 3.168v29.773A3.168 3.168 0 0 1 82.4 95zM20.092 52.112H17.6a2.113 2.113 0 0 1 0-4.224h2.492a2.113 2.113 0 0 1 0 4.224zM71.481 52.112h-4.42a2.113 2.113 0 0 1 0-4.224h4.42a2.113 2.113 0 0 1 0 4.224zm-12.848 0h-4.419a2.113 2.113 0 0 1 0-4.224h4.419a2.113 2.113 0 0 1 0 4.224zm-12.847 0h-4.42a2.113 2.113 0 0 1 0-4.224h4.42a2.113 2.113 0 0 1 0 4.224zm-12.847 0h-4.42a2.113 2.113 0 0 1 0-4.224h4.42a2.113 2.113 0 0 1 0 4.224zM82.4 52.112h-2.492a2.113 2.113 0 0 1 0-4.224H82.4a2.113 2.113 0 0 1 0 4.224zM82.4 41.109H17.6a3.168 3.168 0 0 1-3.168-3.168V8.168a3.168 3.168 0 1 1 6.336 0v26.605h58.465V8.168a3.168 3.168 0 1 1 6.335 0v29.773a3.168 3.168 0 0 1-3.168 3.168z"/>
</svg>
