<svg xmlns="http://www.w3.org/2000/svg" width="20" height="20" viewBox="0 0 1024 1024">
    <path fill="currentColor" d="M694.857 475.429q0-105.715-75.143-180.858T438.857 219.43 258 294.57t-75.143 180.86T258 656.286t180.857 75.143 180.857-75.143 75.143-180.857zM987.43 950.857q0 29.714-21.715 51.429T914.286 1024q-30.857 0-51.429-21.714l-196-195.429q-102.286 70.857-228 70.857-81.714 0-156.286-31.714T154 760.286 68.286 631.714 36.57 475.43t31.715-156.286T154 190.57t128.571-85.714 156.286-31.714 156.286 31.714 128.571 85.714 85.715 128.572 31.714 156.286q0 125.714-70.857 228l196 196q21.143 21.142 21.143 51.428z"/>
</svg>
